<svg width="506" height="156" viewBox="0 0 506 156" fill="none" xmlns="http://www.w3.org/2000/svg">
<path d="M42.8 80.1L32.9 99.9L22.7 120H0.5L60.5 -1.78814e-06L100.55 80.1H78.05L60.5 44.85L42.8 80.1ZM110.45 100.05L120.5 120H98.15L88.25 100.05H110.45ZM164.662 38.1C169.962 38.1 174.712 39.1 178.912 41.1C183.212 43.1 186.862 46.15 189.862 50.25H190.612L192.412 39.6H202.912V121.35C202.912 132.85 199.962 141.5 194.062 147.3C188.262 153.1 179.212 156 166.912 156C155.112 156 145.462 154.3 137.962 150.9V138.75C145.862 142.95 155.762 145.05 167.662 145.05C174.562 145.05 179.962 143 183.862 138.9C187.862 134.9 189.862 129.4 189.862 122.4V119.25C189.862 118.05 189.912 116.35 190.012 114.15C190.112 111.85 190.212 110.25 190.312 109.35H189.712C184.312 117.45 176.012 121.5 164.812 121.5C154.412 121.5 146.262 117.85 140.362 110.55C134.562 103.25 131.662 93.05 131.662 79.95C131.662 67.15 134.562 57 140.362 49.5C146.262 41.9 154.362 38.1 164.662 38.1ZM166.462 49.2C159.762 49.2 154.562 51.9 150.862 57.3C147.162 62.6 145.312 70.2 145.312 80.1C145.312 90 147.112 97.6 150.712 102.9C154.412 108.1 159.762 110.7 166.762 110.7C174.862 110.7 180.762 108.55 184.462 104.25C188.162 99.85 190.012 92.8 190.012 83.1V79.95C190.012 68.95 188.112 61.1 184.312 56.4C180.512 51.6 174.562 49.2 166.462 49.2ZM261.447 38.1C262.947 38.1 264.547 38.2 266.247 38.4C268.047 38.5 269.597 38.7 270.897 39L269.247 51.15C267.947 50.85 266.497 50.6 264.897 50.4C263.397 50.2 261.947 50.1 260.547 50.1C256.447 50.1 252.597 51.25 248.997 53.55C245.397 55.75 242.497 58.9 240.297 63C238.197 67 237.147 71.7 237.147 77.1V120H223.947V39.6H234.747L236.247 54.3H236.847C239.447 49.9 242.797 46.1 246.897 42.9C250.997 39.7 255.847 38.1 261.447 38.1ZM309.53 38.1C316.43 38.1 322.33 39.6 327.23 42.6C332.23 45.6 336.03 49.85 338.63 55.35C341.33 60.75 342.68 67.1 342.68 74.4V82.35H287.63C287.83 91.45 290.13 98.4 294.53 103.2C299.03 107.9 305.28 110.25 313.28 110.25C318.38 110.25 322.88 109.8 326.78 108.9C330.78 107.9 334.88 106.5 339.08 104.7V116.25C334.98 118.05 330.93 119.35 326.93 120.15C322.93 121.05 318.18 121.5 312.68 121.5C305.08 121.5 298.33 119.95 292.43 116.85C286.63 113.75 282.08 109.15 278.78 103.05C275.58 96.85 273.98 89.3 273.98 80.4C273.98 71.6 275.43 64.05 278.33 57.75C281.33 51.45 285.48 46.6 290.78 43.2C296.18 39.8 302.43 38.1 309.53 38.1ZM309.38 48.9C303.08 48.9 298.08 50.95 294.38 55.05C290.78 59.05 288.63 64.65 287.93 71.85H328.88C328.78 65.05 327.18 59.55 324.08 55.35C320.98 51.05 316.08 48.9 309.38 48.9ZM389.698 38.1C396.598 38.1 402.498 39.6 407.398 42.6C412.398 45.6 416.198 49.85 418.798 55.35C421.498 60.75 422.848 67.1 422.848 74.4V82.35H367.798C367.998 91.45 370.298 98.4 374.698 103.2C379.198 107.9 385.448 110.25 393.448 110.25C398.548 110.25 403.048 109.8 406.948 108.9C410.948 107.9 415.048 106.5 419.248 104.7V116.25C415.148 118.05 411.098 119.35 407.098 120.15C403.098 121.05 398.348 121.5 392.848 121.5C385.248 121.5 378.498 119.95 372.598 116.85C366.798 113.75 362.248 109.15 358.948 103.05C355.748 96.85 354.148 89.3 354.148 80.4C354.148 71.6 355.598 64.05 358.498 57.75C361.498 51.45 365.648 46.6 370.948 43.2C376.348 39.8 382.598 38.1 389.698 38.1ZM389.548 48.9C383.248 48.9 378.248 50.95 374.548 55.05C370.948 59.05 368.798 64.65 368.098 71.85H409.048C408.948 65.05 407.348 59.55 404.248 55.35C401.148 51.05 396.248 48.9 389.548 48.9ZM467.316 121.5C457.316 121.5 449.316 118.05 443.316 111.15C437.316 104.15 434.316 93.75 434.316 79.95C434.316 66.15 437.316 55.75 443.316 48.75C449.416 41.65 457.466 38.1 467.466 38.1C473.666 38.1 478.716 39.25 482.616 41.55C486.616 43.85 489.866 46.65 492.366 49.95H493.266C493.166 48.65 492.966 46.75 492.666 44.25C492.466 41.65 492.366 39.6 492.366 38.1V5.99999H505.566V120H494.916L492.966 109.2H492.366C489.966 112.6 486.766 115.5 482.766 117.9C478.766 120.3 473.616 121.5 467.316 121.5ZM469.416 110.55C477.916 110.55 483.866 108.25 487.266 103.65C490.766 98.95 492.516 91.9 492.516 82.5V80.1C492.516 70.1 490.866 62.45 487.566 57.15C484.266 51.75 478.166 49.05 469.266 49.05C462.166 49.05 456.816 51.9 453.216 57.6C449.716 63.2 447.966 70.75 447.966 80.25C447.966 89.85 449.716 97.3 453.216 102.6C456.816 107.9 462.216 110.55 469.416 110.55Z" fill="#060717"/>
</svg>
